<?xml version="1.0" standalone="no"?>
<svg viewBox="0 0 200 200" xmlns="http://www.w3.org/2000/svg">
  <path fill="#F7F2ED" d="M37.7,-64.9C45.6,-60.7,46.5,-44,49.5,-31.1C52.6,-18.2,57.9,-9.1,59.9,1.1C61.8,11.4,60.5,22.7,55.2,31.8C49.9,40.9,40.7,47.7,30.8,51.6C21,55.5,10.5,56.5,-1.4,58.8C-13.3,61.2,-26.5,65,-35.4,60.6C-44.3,56.2,-48.9,43.6,-55.8,32.1C-62.8,20.6,-72,10.3,-74.4,-1.4C-76.8,-13.1,-72.3,-26.1,-66.5,-39.4C-60.6,-52.7,-53.3,-66.3,-42,-68.4C-30.7,-70.6,-15.4,-61.4,-0.2,-61C14.9,-60.6,29.8,-69.1,37.7,-64.9Z" transform="translate(100 100)" />
</svg>
